<svg width="24" height="25" viewBox="0 0 24 25" fill="none" xmlns="http://www.w3.org/2000/svg">
<g clip-path="url(#clip0_300_443)">
<path d="M8 4.5C8 3.43913 8.42143 2.42172 9.17157 1.67157C9.92172 0.921427 10.9391 0.5 12 0.5C13.0609 0.5 14.0783 0.921427 14.8284 1.67157C15.5786 2.42172 16 3.43913 16 4.5V10.9C16 11.9609 15.5786 12.9783 14.8284 13.7284C14.0783 14.4786 13.0609 14.9 12 14.9C10.9391 14.9 9.92172 14.4786 9.17157 13.7284C8.42143 12.9783 8 11.9609 8 10.9V4.5Z" fill="#007AFF"/>
<path d="M3.19995 6.89999V10.9C3.19964 13.0956 4.02013 15.2121 5.5003 16.8337C6.98048 18.4554 9.01342 19.4652 11.2 19.6648V22.9H7.99995V24.5H16V22.9H12.8V19.6648C14.9865 19.4652 17.0194 18.4554 18.4996 16.8337C19.9798 15.2121 20.8003 13.0956 20.8 10.9V6.89999H19.2V10.9C19.2 12.8096 18.4414 14.6409 17.0911 15.9912C15.7409 17.3414 13.9095 18.1 12 18.1C10.0904 18.1 8.25904 17.3414 6.90878 15.9912C5.55852 14.6409 4.79995 12.8096 4.79995 10.9V6.89999H3.19995Z" fill="#007AFF"/>
</g>
<defs>
<clipPath id="clip0_300_443">
<rect width="24" height="24" fill="white" transform="translate(0 0.5)"/>
</clipPath>
</defs>
</svg>
