<svg width="20" height="20" viewBox="0 0 20 20" fill="none" xmlns="http://www.w3.org/2000/svg">
<path d="M1.35981 9.49502V16.652H4.38981L4.54281 16.67C7.35581 17.326 9.21981 17.799 10.1488 18.092C11.3828 18.481 11.8428 18.576 12.6798 18.632C13.3058 18.675 14.0168 18.434 14.3408 18.104C14.5198 17.922 14.6538 17.548 14.7068 16.968C14.7178 16.8464 14.7613 16.73 14.8327 16.6309C14.9041 16.5319 15.0009 16.4538 15.1128 16.405C15.3618 16.297 15.5688 16.121 15.7418 15.865C15.9018 15.631 16.0058 15.195 16.0248 14.564C16.0281 14.448 16.061 14.3348 16.1204 14.235C16.1797 14.1353 16.2635 14.0523 16.3638 13.994C16.9458 13.657 17.2338 13.277 17.2938 12.831C17.3598 12.338 17.1998 11.783 16.7808 11.151C16.6825 11.0028 16.6459 10.8221 16.6788 10.6473C16.7116 10.4725 16.8114 10.3174 16.9568 10.215C17.3578 9.93302 17.5778 9.54102 17.6328 8.98502C17.7208 8.09902 17.1558 7.44402 15.8768 7.31302C14.7377 7.20035 13.5875 7.29625 12.4828 7.59602C12.3575 7.62877 12.2254 7.62504 12.1021 7.58529C11.9789 7.54553 11.8695 7.47139 11.787 7.37159C11.7044 7.27179 11.652 7.15049 11.6361 7.02195C11.6201 6.89341 11.6412 6.76299 11.6968 6.64602C12.1968 5.58802 12.4748 4.71502 12.5398 4.03902C12.6248 3.14202 12.4178 2.49202 11.9338 1.95602C11.5668 1.55002 10.9798 1.31802 10.7598 1.36602C10.4698 1.42802 10.2808 1.59602 10.0348 2.18402C9.88981 2.53202 9.81981 2.82802 9.69981 3.51902C9.58481 4.17502 9.52181 4.47102 9.39081 4.85902C8.99581 6.03502 8.02681 7.25402 6.72581 8.09502C5.814 8.68373 4.82581 9.14469 3.78881 9.46502C3.72402 9.48499 3.6566 9.4951 3.58881 9.49502H1.35981ZM1.31781 18.015C0.994807 18.024 0.704807 17.952 0.461807 17.782C0.151807 17.565 0.00580697 17.223 0.00280697 16.829L0.00580697 9.50602C-0.028193 9.11602 0.086807 8.75802 0.358807 8.49202C0.613807 8.24202 0.946807 8.12402 1.29881 8.13202H3.48381C4.36766 7.85039 5.21033 7.45294 5.98981 6.95002C7.03781 6.27202 7.80981 5.30002 8.10481 4.42402C8.20581 4.12202 8.25981 3.87202 8.36181 3.28402C8.49981 2.49502 8.58581 2.12802 8.78381 1.65602C9.19381 0.674018 9.73181 0.194018 10.4738 0.0330184C11.2038 -0.124982 12.2668 0.296018 12.9388 1.04002C13.6838 1.86402 14.0128 2.89502 13.8908 4.16902C13.8388 4.71702 13.6868 5.33002 13.4368 6.01302C14.2906 5.8886 15.1564 5.86979 16.0148 5.95702C18.0218 6.16202 19.1488 7.46902 18.9848 9.12102C18.9128 9.83302 18.6548 10.438 18.2158 10.913C18.5848 11.624 18.7318 12.327 18.6398 13.013C18.5338 13.803 18.0938 14.461 17.3618 14.972C17.3048 15.665 17.1458 16.218 16.8638 16.632C16.6416 16.9665 16.3517 17.2506 16.0128 17.466C15.9048 18.15 15.6778 18.685 15.3068 19.061C14.6918 19.687 13.5928 20.06 12.5888 19.992C11.6358 19.928 11.0718 19.812 9.74181 19.392C8.86481 19.115 7.04881 18.655 4.31181 18.015H1.31781ZM3.01881 9.18402C3.01854 9.09455 3.03594 9.00591 3.06999 8.92318C3.10405 8.84045 3.1541 8.76525 3.21727 8.70189C3.28044 8.63854 3.35549 8.58827 3.43812 8.55397C3.52075 8.51967 3.60934 8.50202 3.69881 8.50202C3.78811 8.50228 3.87648 8.52013 3.95888 8.55454C4.04128 8.58896 4.1161 8.63927 4.17905 8.7026C4.24201 8.76593 4.29188 8.84104 4.32581 8.92364C4.35974 9.00624 4.37707 9.09472 4.37681 9.18402V16.862C4.37694 16.9513 4.35948 17.0398 4.32543 17.1223C4.29138 17.2049 4.2414 17.2799 4.17835 17.3431C4.1153 17.4064 4.04041 17.4566 3.95796 17.4909C3.8755 17.5252 3.78711 17.5429 3.69781 17.543C3.60851 17.5429 3.52011 17.5252 3.43766 17.4909C3.35521 17.4566 3.28032 17.4064 3.21727 17.3431C3.15422 17.2799 3.10424 17.2049 3.07019 17.1223C3.03613 17.0398 3.01868 16.9513 3.01881 16.862V9.18402Z" fill="#007AFF"/>
<path d="M10.6169 1.19153L10.8377 1.08117C10.9444 1.02779 11.0621 1 11.1815 1C11.3854 1 11.581 1.08101 11.7252 1.2252L11.8232 1.32322C11.9364 1.43641 12.0899 1.5 12.25 1.5C12.4101 1.5 12.5636 1.56359 12.6768 1.67678L12.75 1.75C12.9101 1.91007 13 2.12718 13 2.35355V3V3.52786C13 3.83835 12.9277 4.14458 12.7889 4.42229L12.5812 4.83765C12.5278 4.94442 12.5 5.06214 12.5 5.18151C12.5 5.38544 12.419 5.58101 12.2748 5.7252L12.25 5.75C12.0899 5.91007 12 6.12718 12 6.35355V6.5C12 6.77614 12.2239 7 12.5 7H13H14H14.5H15.5H16.5C16.8201 7 17.1272 7.12718 17.3536 7.35355L17.5 7.5L17.5496 7.54959C17.838 7.83798 18 8.22913 18 8.63698C18 8.87571 17.9444 9.11117 17.8377 9.3247L17.589 9.82197C17.5301 9.93989 17.4525 10.0475 17.3593 10.1407L17.1768 10.3232C17.0636 10.4364 17 10.5899 17 10.75C17 10.9101 17.0636 11.0636 17.1768 11.1768L17.25 11.25C17.4101 11.4101 17.5 11.6272 17.5 11.8536V12V12.5V13C17.5 13.3201 17.3728 13.6272 17.1464 13.8536L17 14L16.7252 14.2748C16.581 14.419 16.5 14.6146 16.5 14.8185C16.5 14.9379 16.4722 15.0556 16.4188 15.1623L16.1451 15.7097C16.049 15.902 15.9225 16.0775 15.7705 16.2295L15.5 16.5L15.3536 16.6464C15.1272 16.8728 15 17.1799 15 17.5C15 17.8201 14.8728 18.1272 14.6464 18.3536L14.5 18.5C14.1799 18.8201 13.7456 19 13.2929 19H13H12.1655C12.0554 19 11.9454 18.9909 11.8367 18.9728L9 18.5L6 18L4.97014 17.7425C4.39998 17.6 4 17.0877 4 16.5V13V10.2361C4 9.47852 4.428 8.786 5.10557 8.44721L5.70971 8.14515C5.90198 8.04901 6.07749 7.92251 6.2295 7.7705L7.7705 6.2295C7.92251 6.07749 8.04901 5.90198 8.14515 5.70971L9 4L9.74383 2.14042C9.90885 1.72788 10.2195 1.39024 10.6169 1.19153Z" fill="#007AFF" stroke="#007AFF"/>
</svg>
