<svg width="50" height="50" viewBox="0 0 50 50" fill="none" xmlns="http://www.w3.org/2000/svg">
<path d="M44.9609 31.8359C45.1445 32.0652 45.2597 32.3414 45.2934 32.6331C45.3271 32.9248 45.278 33.2201 45.1516 33.4851C45.0252 33.7502 44.8266 33.9742 44.5787 34.1316C44.3309 34.289 44.0436 34.3734 43.75 34.375H9.375V42.1875C9.375 42.6019 9.21038 42.9993 8.91735 43.2924C8.62433 43.5854 8.2269 43.75 7.8125 43.75C7.3981 43.75 7.00067 43.5854 6.70765 43.2924C6.41462 42.9993 6.25 42.6019 6.25 42.1875V9.375C6.25 8.9606 6.41462 8.56317 6.70765 8.27015C7.00067 7.97712 7.3981 7.8125 7.8125 7.8125H43.75C44.0436 7.81415 44.3309 7.8985 44.5787 8.05589C44.8266 8.21328 45.0252 8.43733 45.1516 8.70236C45.278 8.9674 45.3271 9.26268 45.2934 9.55437C45.2597 9.84606 45.1445 10.1223 44.9609 10.3516L36.3672 21.0938L44.9609 31.8359Z" fill="black"/>
<path d="M7.42188 7.03125L7.79441 45.0294" stroke="black" stroke-width="4" stroke-linecap="round"/>
</svg>
