<svg width="25" height="25" viewBox="0 0 22 18" fill="none" xmlns="http://www.w3.org/2000/svg">
<path d="M10.5 11.5H11.5858C11.851 11.5 12.1054 11.6054 12.2929 11.7929L13.3671 12.8671C13.7274 13.2274 14.301 13.2592 14.6989 12.9409L16.2261 11.7191C16.4034 11.5773 16.6237 11.5 16.8508 11.5H18.5" stroke="#656C77" stroke-width="1.5" stroke-linecap="round"/>
<path d="M19.5781 2.78309L13.0001 1.23533C12.4522 1.1064 11.9059 1.45492 11.7918 2.00614L9.21064 14.4819C9.09565 15.0377 9.4657 15.5776 10.0255 15.6709L17.0249 16.8375C17.5653 16.9275 18.0775 16.5661 18.1738 16.0269L20.3335 3.9323C20.4269 3.4094 20.0952 2.90475 19.5781 2.78309Z" stroke="#656C77" stroke-width="2" stroke-linecap="round"/>
<path d="M8 1L1.98518 1.85926C1.44031 1.9371 1.06077 2.44061 1.13598 2.98585L2.88092 15.6366C2.94916 16.1314 3.37205 16.5 3.87154 16.5H6.5" stroke="#656C77" stroke-width="2" stroke-linecap="round"/>
<circle cx="14.5" cy="7.5" r="1.5" fill="#656C77"/>
</svg>
