<svg width="50" height="50" viewBox="0 0 50 50" fill="none" xmlns="http://www.w3.org/2000/svg">
<g clip-path="url(#clip0_21_1248)">
<g clip-path="url(#clip1_21_1248)">
<path d="M25 50C38.8071 50 50 38.8071 50 25C50 11.1929 38.8071 0 25 0C11.1929 0 0 11.1929 0 25C0 38.8071 11.1929 50 25 50Z" fill="url(#paint0_linear_21_1248)"/>
<path d="M16.9227 26.8275L19.8888 35.0371C19.8888 35.0371 20.2596 35.8052 20.6567 35.8052C21.0538 35.8052 26.9598 29.661 26.9598 29.661L33.5275 16.9756L17.0286 24.7083L16.9227 26.8275Z" fill="#C8DAEA"/>
<path d="M20.8555 28.9329L20.2861 34.9842C20.2861 34.9842 20.0478 36.8383 21.9015 34.9842C23.7553 33.13 25.5296 31.7002 25.5296 31.7002" fill="#A9C6D8"/>
<path d="M16.9762 27.1204L10.8749 25.1325C10.8749 25.1325 10.1458 24.8367 10.3806 24.1658C10.4289 24.0275 10.5264 23.9098 10.8181 23.7075C12.1699 22.7652 35.8401 14.2575 35.8401 14.2575C35.8401 14.2575 36.5085 14.0323 36.9026 14.1821C37.0002 14.2123 37.0879 14.2678 37.1569 14.343C37.2259 14.4183 37.2737 14.5105 37.2954 14.6102C37.3379 14.7864 37.3558 14.9677 37.3483 15.1488C37.3464 15.3054 37.3274 15.4506 37.3131 15.6783C37.1689 18.0044 32.8547 35.3644 32.8547 35.3644C32.8547 35.3644 32.5966 36.3802 31.6718 36.415C31.4445 36.4223 31.2181 36.3838 31.0061 36.3018C30.794 36.2198 30.6006 36.0959 30.4374 35.9375C28.6226 34.3765 22.3501 30.161 20.9641 29.234C20.9328 29.2127 20.9065 29.1849 20.8869 29.1526C20.8673 29.1202 20.8548 29.084 20.8504 29.0465C20.831 28.9488 20.9372 28.8277 20.9372 28.8277C20.9372 28.8277 31.8593 19.1194 32.1499 18.1002C32.1724 18.0213 32.0874 17.9823 31.9733 18.0169C31.2479 18.2838 18.6724 26.2252 17.2845 27.1017C17.1846 27.1319 17.079 27.1383 16.9762 27.1204Z" fill="white"/>
</g>
</g>
<rect x="1" y="1" width="48" height="48" rx="24" stroke="white" stroke-width="2"/>
<defs>
<linearGradient id="paint0_linear_21_1248" x1="25" y1="50" x2="25" y2="0" gradientUnits="userSpaceOnUse">
<stop stop-color="#1D93D2"/>
<stop offset="1" stop-color="#38B0E3"/>
</linearGradient>
<clipPath id="clip0_21_1248">
<rect width="50" height="50" rx="25" fill="white"/>
</clipPath>
<clipPath id="clip1_21_1248">
<rect width="50" height="50" fill="white"/>
</clipPath>
</defs>
</svg>
