<svg width="43" height="40" viewBox="0 0 43 40" fill="none" xmlns="http://www.w3.org/2000/svg">
<path d="M15.0928 19.1484H19.4062V24.5352C18.8913 24.7129 18.3011 24.8587 17.6357 24.9727C16.9704 25.082 16.2731 25.1367 15.5439 25.1367C14.5824 25.1367 13.7393 24.9499 13.0146 24.5762C12.29 24.2025 11.7249 23.6351 11.3193 22.874C10.9137 22.1084 10.7109 21.1423 10.7109 19.9756C10.7109 18.9274 10.9115 18.0228 11.3125 17.2617C11.7135 16.4961 12.3037 15.9059 13.083 15.4912C13.8669 15.0719 14.8262 14.8623 15.9609 14.8623C16.5853 14.8623 17.1777 14.9215 17.7383 15.04C18.2988 15.1585 18.7865 15.3089 19.2012 15.4912L18.3467 17.6104C17.9867 17.4326 17.613 17.3005 17.2256 17.2139C16.8382 17.1227 16.4212 17.0771 15.9746 17.0771C15.3776 17.0771 14.8968 17.2116 14.5322 17.4805C14.1722 17.7493 13.9102 18.1094 13.7461 18.5605C13.582 19.0072 13.5 19.5016 13.5 20.0439C13.5 20.6637 13.5866 21.1878 13.7598 21.6162C13.9375 22.04 14.195 22.3636 14.5322 22.5869C14.874 22.8057 15.2865 22.915 15.7695 22.915C15.929 22.915 16.1227 22.9036 16.3506 22.8809C16.583 22.8581 16.7585 22.8307 16.877 22.7988V21.2334H15.0928V19.1484ZM21.4434 25V15.0059H24.1572V25H21.4434ZM28.9834 25H26.3242V15.0059H32.2305V17.1729H28.9834V19.0801H31.9775V21.2471H28.9834V25Z" fill="black"/>
<rect x="1.5" y="1.5" width="40" height="37" rx="4.5" stroke="black" stroke-width="3"/>
</svg>
