<svg width="36" height="26" viewBox="0 0 36 26" fill="none" xmlns="http://www.w3.org/2000/svg">
<path d="M5.77539 0.75C4.44931 0.75 3.17754 1.27678 2.23986 2.21447C1.30217 3.15215 0.775391 4.42392 0.775391 5.75V20.75C0.775391 22.0761 1.30217 23.3479 2.23986 24.2855C3.17754 25.2232 4.44931 25.75 5.77539 25.75H19.5254C20.8515 25.75 22.1232 25.2232 23.0609 24.2855C23.9986 23.3479 24.5254 22.0761 24.5254 20.75V5.75C24.5254 4.42392 23.9986 3.15215 23.0609 2.21447C22.1232 1.27678 20.8515 0.75 19.5254 0.75H5.77539ZM31.5087 24.5L27.0254 20.0167V6.48333L31.5087 2C33.0821 0.425 35.7754 1.54 35.7754 3.76667V22.7333C35.7754 24.96 33.0821 26.075 31.5087 24.5Z" fill="white"/>
</svg>
