<svg width="40" height="40" viewBox="0 0 40 40" fill="none" xmlns="http://www.w3.org/2000/svg">
<path d="M9.77539 8.75C8.44931 8.75 7.17754 9.27678 6.23986 10.2145C5.30217 11.1521 4.77539 12.4239 4.77539 13.75V28.75C4.77539 30.0761 5.30217 31.3479 6.23986 32.2855C7.17754 33.2232 8.44931 33.75 9.77539 33.75H23.5254C24.8515 33.75 26.1232 33.2232 27.0609 32.2855C27.9986 31.3479 28.5254 30.0761 28.5254 28.75V13.75C28.5254 12.4239 27.9986 11.1521 27.0609 10.2145C26.1232 9.27678 24.8515 8.75 23.5254 8.75H9.77539ZM35.5087 32.5L31.0254 28.0167V14.4833L35.5087 10C37.0821 8.425 39.7754 9.54 39.7754 11.7667V30.7333C39.7754 32.96 37.0821 34.075 35.5087 32.5Z" fill="white"/>
</svg>
