<svg width="40" height="40" viewBox="0 0 40 40" fill="none" xmlns="http://www.w3.org/2000/svg">
<path d="M12.9533 4.06497L14.7466 3.49163C16.4283 2.95497 18.225 3.8233 18.945 5.51997L20.3783 8.89997C21.0016 10.3716 20.655 12.1033 19.5216 13.18L16.3633 16.1766C16.5583 17.97 17.1616 19.735 18.1716 21.4716C19.1308 23.1519 20.4173 24.6226 21.955 25.7966L25.7483 24.53C27.185 24.0516 28.7516 24.6033 29.6316 25.8983L31.6866 28.915C32.7116 30.4216 32.5266 32.4983 31.255 33.775L29.8933 35.1433C28.5366 36.505 26.5983 37 24.8066 36.44C20.5733 35.12 16.685 31.2016 13.135 24.685C9.57997 18.1583 8.32497 12.6183 9.37164 8.07163C9.81164 6.1583 11.1733 4.6333 12.9533 4.06497Z" fill="white"/>
</svg>
